<svg width="163" height="136" viewBox="0 0 163 136" xmlns="http://www.w3.org/2000/svg">
    <g fill-rule="nonzero" fill="none">
        <ellipse cx="81.286" cy="4.191" rx="81.259" ry="3.895" transform="translate(-.06 127.74)" fill="#EBEBEB"/>
        <path d="m7.973 107.026-.406 16.09c0 2.975.072 5.578.228 6.923a2.063 2.063 0 0 0 .22.942h.019c.885.597 24.643 1.216 25.479.958.836-.258.167-2.66-.737-3.42-.905-.76-9.88-5.062-9.88-5.062l.258-16.074-15.18-.357z" fill="#D3766A"/>
        <path d="m7.54 119.927.027 3.188c0 2.976.072 5.579.228 6.924a.05.05 0 0 0 0 .023c.038.314.112.622.22.92h.019c.885.596 24.643 1.215 25.479.957.836-.258.167-2.66-.737-3.42-.905-.76-9.88-5.062-9.88-5.062l.019-3.241-15.375-.289z" fill="#FFF"/>
        <path d="M24.34 123.48c-1.581-.262-3.504.023-4.686 1.17-.045.046.02.11.069.092a22.557 22.557 0 0 1 4.617-1.064.099.099 0 1 0 0-.198zM25.491 124.141c-1.58-.262-3.503.023-4.685 1.17-.046.046 0 .111.072.092a22.462 22.462 0 0 1 4.613-1.064.099.099 0 1 0 0-.198zM26.643 124.803c-1.581-.263-3.504.022-4.682 1.17-.046.046 0 .11.068.091A22.462 22.462 0 0 1 26.643 125a.099.099 0 1 0 0-.197z" fill="#263238"/>
        <path d="M33.517 131.954c-.836.259-24.594-.357-25.46-.957-.342-.22-.456-3.686-.471-7.878v-.133l15.333.228v.259s8.987 4.301 9.88 5.065c.893.764 1.554 3.162.718 3.416z" fill="#37474F"/>
        <path d="M7.567 122.982v.137c0 4.18.125 7.657.47 7.878.347.22 5.549.547 11.116.76 6.657.235 13.908.353 14.364.212.836-.258.163-2.66-.737-3.42-.901-.76-9.88-5.061-9.88-5.061v-.259l-5.1-.09-10.233-.157z" fill="#FFC727"/>
        <path d="M33.27 131.027c-4.002-.201-20.14-.642-24.13-.536-.034 0-.034.023 0 .023 3.96.289 20.14.597 24.13.578.083 0 .087-.061 0-.065z" fill="#263238"/>
        <path d="M17.8 123.138c.38 2.569.946 6.35 1.368 8.607 6.658.236 13.908.354 14.364.213.836-.258.163-2.66-.737-3.42-.9-.76-9.88-5.062-9.88-5.062v-.258l-5.115-.08z" fill="#000" opacity=".1"/>
        <path d="m6.183 123.207 17.192.163s.976-27.99 1.048-37.324c.088-10.662-.516-42.643-.516-42.643H11.05s-3.446 7.049-1.478 14.98l.547 28.534-3.937 36.29z" fill="#263238"/>
        <path d="M7.46 120.193c.454-.06.91-.096 1.368-.106.51-.038 1.015-.076 1.52-.095.977-.042 1.957-.061 2.934-.065 1.976 0 3.948 0 5.92.072 1.14.035 2.246.076 3.367.141a.038.038 0 0 1 0 .072c-1.957.072-3.918.103-5.875.14-1.957.039-3.914.077-5.867.039-.562 0-1.121 0-1.683-.05-.563-.049-1.14 0-1.68-.08-.03-.003-.046-.06-.004-.068zM22.136 104.746c.201-4.628.35-9.26.475-13.889.253-9.264.32-18.529.201-27.793-.064-5.198-.205-10.393-.357-15.58 0-.057.087-.053.091 0 .49 9.302.677 18.62.688 27.934.011 9.314-.182 18.532-.638 27.79-.259 5.19-.574 10.388-1.064 15.58 0 .041-.073.041-.069 0 .21-4.698.471-9.368.673-14.042z" fill="#37474F"/>
        <path d="m26.361 109.58.133 15.553c0 2.972.073 5.579.228 6.924a2.04 2.04 0 0 0 .22.939l.02.018c.885.597 24.643 1.213 25.46.958.817-.255.167-2.66-.737-3.42-.905-.76-9.88-5.065-9.88-5.065l-.278-15.535-15.166-.372z" fill="#D3766A"/>
        <path d="m26.468 121.941.026 3.192c0 2.972.073 5.579.228 6.924a.05.05 0 0 0 0 .023c.038.312.112.62.22.915l.02.02c.885.596 24.643 1.212 25.46.957.817-.255.167-2.66-.737-3.42-.905-.76-9.88-5.065-9.88-5.065v-3.238l-15.337-.308z" fill="#FFF"/>
        <path d="M43.26 125.498c-1.58-.262-3.504.023-4.685 1.17-.046.042.019.107.068.092a22.067 22.067 0 0 1 4.617-1.064.099.099 0 1 0 0-.198zM44.419 126.16c-1.58-.263-3.504.022-4.685 1.17-.046.041.019.106.072.09a21.98 21.98 0 0 1 4.613-1.063.099.099 0 1 0 0-.198zM45.57 126.82c-1.58-.262-3.503.023-4.681 1.17-.046.043 0 .107.068.092a21.98 21.98 0 0 1 4.613-1.064.099.099 0 1 0 0-.198z" fill="#263238"/>
        <path d="M52.445 133.972c-.836.258-24.594-.361-25.46-.958-.342-.22-.456-3.69-.472-7.88v-.13l15.333.224v.262s8.987 4.302 9.88 5.062c.893.76 1.555 3.165.719 3.42z" fill="#FFC727"/>
        <path d="M52.198 133.06c-4.002-.205-20.16-.642-24.13-.54-.035 0-.035.023 0 .027 3.96.289 20.14.593 24.13.578.083-.016.087-.065 0-.065zM18.51 59.857s7.05 22.226 7.179 26.311c.11 3.485-.338 39.224-.338 39.224l17.86.106s-1.52-36.446-1.786-40.079c-.521-6.786-6.46-25.418-10.72-42.016H11.45s.171 8.694 4.123 14.98c0 0 1.79.828 2.938 1.474z" fill="#263238"/>
        <path d="M26.3 122.1c2.064-.06 4.18-.12 6.263-.071 2.082.049 4.096.083 6.14.205 1.16.068 2.315.106 3.474.224a.03.03 0 0 1 0 .06c-2.06.119-4.13.096-6.194.077-2.063-.02-4.093-.038-6.14-.133a151.878 151.878 0 0 1-3.474-.194c-.13-.008-.209-.163-.068-.167zM30.203 53.876c.639 2.124 1.174 4.278 1.744 6.422.57 2.143 1.14 4.32 1.714 6.482 1.102 4.18 2.189 8.36 3.014 12.616a76.186 76.186 0 0 1 1.428 12.92c.095 4.427 0 8.858-.03 13.3-.03 4.443-.065 8.9-.144 13.346 0 .555-.02 1.11-.042 1.66a.04.04 0 1 1-.08 0c-.122-4.426-.057-8.861-.042-13.3.015-4.438.072-8.857.034-13.3a79.352 79.352 0 0 0-1.14-13.11c-.76-4.26-1.793-8.458-2.884-12.642-.62-2.386-1.246-4.773-1.866-7.16-.619-2.386-1.288-4.799-1.839-7.22a.07.07 0 0 1 .06-.061.07.07 0 0 1 .073.047zM22.922 60.286a15.854 15.854 0 0 1-2.66-.24 25.962 25.962 0 0 1-2.557-.706c-.83-.19-1.672-.327-2.52-.41a8.843 8.843 0 0 1-2.466-.73c-.038 0-.068.038-.034.057.76.406 1.552.749 2.368 1.026.847.266 1.732.304 2.591.513.873.258 1.762.462 2.66.608a9.5 9.5 0 0 0 2.66-.046c.004-.019-.007-.072-.042-.072z" fill="#37474F"/>
        <path d="M24.051 77.96c-.171-.657-.33-1.319-.51-1.976-.38-1.326-.725-2.66-1.14-3.971-.793-2.614-1.546-5.244-2.39-7.843-.478-1.475-.908-2.968-1.466-4.416a.03.03 0 0 0-.057.02c.281 1.348.68 2.66 1.037 3.997.357 1.337.737 2.66 1.14 3.97.76 2.627 1.52 5.256 2.341 7.863.232.73.471 1.46.722 2.181.25.722.46 1.52.76 2.223a.032.032 0 1 0 .06-.019c-.113-.676-.326-1.349-.497-2.029z" fill="#37474F"/>
        <path d="M25.525 21.477c2.93 1.767 14.06 7.767 18.73 6.98 3.143-.528 10.91-7.98 12.335-10.491.582-1.026-6.84-7.14-7.892-6.434-1.14.76-6.255 7.794-7.156 8.068-.9.273-9.298-1.06-14.162-1.24-2.911-.102-3.5 2.121-1.855 3.117z" fill="#D3766A"/>
        <path d="M54.88 20.086c1.627-1.429 5.883-7.6 6.46-8.987.578-1.387 1.9-5.544.882-6.08-1.018-.536-1.52.638-1.52.638s.346-2.006-.794-2.28C59 3.15 58.22 4.78 58.22 4.78s.266-2.223-.901-2.36c-1.064-.126-1.46 1.843-1.46 1.843s.031-1.9-1.014-1.805c-1.261.091-1.318 3.348-2.06 4.849-.17.338-6.433 6.92-6.433 6.92l8.527 5.859z" fill="#D3766A"/>
        <path d="M55.8 4.175c-.293 2.432-.483 3.42-1.782 5.4-.023.038.026.088.057.05 1.448-1.813 1.76-2.983 1.839-5.453-.015-.122-.114-.11-.114.003zM58.19 4.764c-.266 2.486-.76 3.572-1.976 5.735 0 .03.034.064.053.034 1.365-2.022 2.068-3.26 2.007-5.776-.004-.114-.069-.103-.084.007zM60.637 5.76c-.433 2.383-.885 3.648-2.325 5.594a.046.046 0 1 0 .068.057c1.66-1.843 2.238-3.42 2.326-5.632.007-.152-.042-.171-.069-.019z" fill="#263238"/>
        <path d="M46.346 14.207s1.14-2.595 1.645-3.853c.505-1.258 1.376-5.004 2.489-5.32 1.246-.38 1.539 3.124.688 5.377 0 0 3.131 2.413 2.413 4.617-.156.475-1.847 2.425-2.417 2.516l-4.818-3.337z" fill="#D3766A"/>
        <path d="M51.16 10.654c1.254.897 2.49 2.508 2.398 4.044a.034.034 0 1 0 .068 0c.323-1.63-1.09-3.508-2.257-4.241-.224-.137-.532-.034-.209.197z" fill="#263238"/>
        <path d="m46.342 14.147 8.675 5.931s.202 1.22-1.14 2.512c-1.341 1.292-7.068 6.118-10.013 6.202-2.945.083-12.79-3.587-17.594-6.692-4.803-3.105.274-3.998 1.33-3.925 1.057.072 13.566 1.14 13.942 1.003.377-.137 2.159-2.941 3.109-3.956.95-1.015 1.69-1.075 1.69-1.075z" fill="#FFC727"/>
        <path d="M24.431 19.292a.859.859 0 0 0-.106.19h.019c.25.136.519.236.798.296a2.998 2.998 0 0 0-.711-.486zm20.14.976a3.219 3.219 0 0 0-.802-.296c.207.197.442.363.696.494.252.134.522.234.801.296a3.013 3.013 0 0 0-.691-.494h-.004zm-7.855 6.18a2.877 2.877 0 0 0-.798-.297c.422.387.936.658 1.494.786a2.998 2.998 0 0 0-.692-.49h-.004zm7.004.991a3.139 3.139 0 0 0-.798-.296c.207.196.441.363.695.494.252.134.52.234.798.296a3.013 3.013 0 0 0-.691-.494h-.004zm-3.04-3.735c-.138.25-.238.518-.297.798.197-.207.362-.441.49-.696.14-.25.239-.521.297-.802-.188.211-.346.446-.471.7h-.02zm-7.642-4.42a3.04 3.04 0 0 0-.76.354c.285-.008.568-.056.84-.145.268-.083.523-.202.76-.353-.28.009-.556.057-.821.144h-.019zm13.707-3.439a2.918 2.918 0 0 0-.358-.76c.023.573.196 1.13.502 1.615a3.063 3.063 0 0 0-.125-.855h-.02zm.277 8.622a3.154 3.154 0 0 0-.353-.76c.007.287.055.571.144.844.082.268.201.524.353.76a2.972 2.972 0 0 0-.106-.844h-.038zm-18.62-6.213h-.22c.07.22.172.428.3.62a2.6 2.6 0 0 0-.042-.62h-.038zm11.278 1.289a2.854 2.854 0 0 0-.801-.297 3.34 3.34 0 0 0 1.497.787 2.888 2.888 0 0 0-.661-.49h-.035zm-9.59 1.953a2.877 2.877 0 0 0-.799-.297c.208.196.442.361.696.49.25.138.518.238.798.297a2.998 2.998 0 0 0-.662-.49h-.034zm19.588-.76c-.134.251-.234.52-.296.798.197-.207.364-.441.494-.696.134-.25.234-.52.296-.798a3.013 3.013 0 0 0-.452.688l-.042.008zm2.466 3.161c.081.006.163.006.244 0l.304-.258c-.18.065-.352.15-.513.25l-.035.008zm1.661-4.142a2.968 2.968 0 0 0-.3-.676.456.456 0 0 0-.057-.091 2.975 2.975 0 0 0 .391.76l-.034.007zM35.223 22.69a2.945 2.945 0 0 0-.296.802c.197-.207.363-.443.49-.7.138-.25.238-.518.296-.797-.182.208-.335.439-.456.687l-.034.008z" fill="#FFF"/>
        <path d="m46.342 14.147 8.675 5.931s.202 1.22-1.14 2.512c-1.341 1.292-7.068 6.118-10.013 6.202-2.945.083-12.79-3.587-17.594-6.692-4.803-3.105.274-3.998 1.33-3.925 1.057.072 13.566 1.14 13.942 1.003.377-.137 2.159-2.941 3.109-3.956.95-1.015 1.69-1.075 1.69-1.075z" opacity=".1" fill="#000"/>
        <path d="M7.798 48.962c.054.069 25.586 1.634 25.84 1.387.346-.35-4.309-27.109-5.825-31.16-.642-1.721-4.704-2.485-6.52-1.174-4.56 3.28-8.973 15.227-10.044 18.84C9.463 42.821 7.6 48.7 7.799 48.962z" fill="#FFC727"/>
        <path d="M24.431 19.292a2.877 2.877 0 0 0-.798-.297c.421.388.936.659 1.493.787a2.998 2.998 0 0 0-.695-.49zm-2.797 14.542a2.877 2.877 0 0 0-.798-.296c.421.387.936.658 1.494.787a3.116 3.116 0 0 0-.696-.49zm2.459 10.872a3.002 3.002 0 0 0-.798-.296c.421.387.936.658 1.493.786a3.116 3.116 0 0 0-.695-.49zm-8.695-16.651a3.124 3.124 0 0 0-.638-.255.494.494 0 0 0-.03.065c.18.149.378.276.589.38.25.137.518.237.798.296a2.941 2.941 0 0 0-.719-.486zm15.2 10.233a2.98 2.98 0 0 0-.801-.296c.207.197.443.362.699.49.25.138.519.238.798.296a3.116 3.116 0 0 0-.692-.49h-.004zm-14.364 5.396a2.877 2.877 0 0 0-.798-.296c.422.387.936.658 1.494.786a2.888 2.888 0 0 0-.696-.49zm12.377-15.337a2.877 2.877 0 0 0-.798-.296c.421.387.936.658 1.493.786a3.116 3.116 0 0 0-.695-.49zm-2.398-4.8c-.138.25-.238.52-.296.799.387-.421.658-.936.786-1.494-.196.207-.362.441-.49.696zm3.975 22.523c-.138.25-.238.52-.296.798a3.29 3.29 0 0 0 .786-1.497 2.983 2.983 0 0 0-.49.7zm-9.5-5.206a3.112 3.112 0 0 0-.296.802 3.04 3.04 0 0 0 .494-.699c.134-.251.234-.52.296-.798-.2.206-.371.44-.505.695h.011zm4.94-9.078c-.138.25-.238.519-.296.798.387-.421.658-.936.786-1.493-.2.206-.371.44-.505.695h.015zm-14.079 14.06c-.135.252-.234.52-.296.798.196-.207.363-.441.494-.695.134-.252.234-.52.296-.798a3.013 3.013 0 0 0-.51.703l.016-.008zm1.098-10.678c-.138.25-.238.519-.296.798.195-.207.36-.441.49-.695.137-.252.237-.522.296-.802-.202.21-.372.447-.505.707l.015-.008zm4.94-11.377c-.134.251-.234.52-.296.798.197-.207.363-.441.494-.695.134-.252.234-.52.296-.798-.205.208-.38.444-.517.703l.023-.008zm3.709-2.101a2.975 2.975 0 0 0-.76.357c.285-.01.568-.06.84-.145.269-.081.525-.202.76-.357a2.949 2.949 0 0 0-.863.152l.023-.007zm5.924 19.938a2.975 2.975 0 0 0-.76.357c.285-.01.568-.059.84-.144.27-.082.525-.202.76-.357a2.949 2.949 0 0 0-.863.152l.023-.008zm-10.826 7.627c-.196.06-.385.137-.566.232h.16l.292.019c.06-.02.106-.038.167-.054a3.04 3.04 0 0 0 .76-.357 2.953 2.953 0 0 0-.813.16zm.334-10.61a3.04 3.04 0 0 0-.76.354 3.272 3.272 0 0 0 1.615-.502c-.29.009-.578.059-.855.148zm3.504-8.945c-.27.082-.525.202-.76.357.285-.01.568-.06.84-.148.27-.079.526-.198.76-.353a2.926 2.926 0 0 0-.84.144zm10.283 3.884a3.093 3.093 0 0 0-.354-.76c.007.285.056.568.145.84.082.268.2.524.353.76a2.949 2.949 0 0 0-.144-.848v.008zm-9.99 13.433a2.953 2.953 0 0 0-.358-.76c.012.285.06.567.145.84.082.268.202.524.357.76a2.972 2.972 0 0 0-.144-.84zm-8.699-6.373a3.04 3.04 0 0 0-.353-.76c.007.285.056.568.144.84.083.268.201.524.354.76a2.926 2.926 0 0 0-.145-.84zm4.655-6.946a2.975 2.975 0 0 0-.357-.76c.01.285.06.567.145.84.081.269.202.525.357.76a2.949 2.949 0 0 0-.145-.84zm9.88 15.409a3.105 3.105 0 0 0-.357-.76c.023.573.196 1.13.502 1.615a3.241 3.241 0 0 0-.133-.855h-.012zm-1.387-11.758a3.245 3.245 0 0 0-.357-.76c.023.573.196 1.13.502 1.615a3.241 3.241 0 0 0-.133-.855h-.012zm-1.52-10.837a2.918 2.918 0 0 0-.357-.76c.01.285.06.567.145.84.081.269.202.525.357.76a2.926 2.926 0 0 0-.148-.84h.003z" fill="#FFF"/>
        <path d="M27.908 19.634c0 1.163-.072 3.853-1.9 3.58a3.88 3.88 0 0 1-1.9-1.091 10.336 10.336 0 0 1-1.444-1.657c-.495-.66-.935-1.36-1.315-2.094 0-.034-.06 0-.045.027.38.733.703 1.493 1.14 2.189a8.88 8.88 0 0 0 1.558 1.831 3.86 3.86 0 0 0 2.025 1.08 1.47 1.47 0 0 0 1.558-1.015 6.46 6.46 0 0 0 .323-2.85z" fill="#263238"/>
        <path d="M26.183 21.986c-1.315.05-3.337-2.512-3.88-4.237-.038-.118.35-1.208.76-2.561.247-.817.498-1.737.665-2.592l5.092 2.364a13.855 13.855 0 0 0-1.167 3.18 1.987 1.987 0 0 0-.034.418c-.023.688-.167 3.379-1.436 3.428z" fill="#D3766A"/>
        <path d="M27.623 18.498a.327.327 0 0 1 0 .057 3.454 3.454 0 0 1-.555-.076c-3.09-.684-3.066-4.625-2.998-5.723l1.27.604 3.484 1.611a13.855 13.855 0 0 0-1.167 3.18c-.021.115-.033.23-.034.347z" fill="#263238"/>
        <path d="M22.014 7.972c-.148 2.06 2.14 7.402 3.8 8.333 2.398 1.349 5.7.779 6.68-1.96.958-2.66-2.146-9.562-3.936-10.344-2.641-1.148-6.323.923-6.544 3.97z" fill="#D3766A"/>
        <path d="M22.82 11.547c.783 2.068 1.999 4.203 2.987 4.758 2.397 1.349 5.7.779 6.684-1.96.35-.981.152-2.532-.33-4.143 0 .08.068 1.326-.582 1.619a.98.98 0 0 1-1.14-.236h-.483a3.37 3.37 0 0 1-2.097 1.14 3.975 3.975 0 0 1-3.219-.805c-.604-.547-.654-.81-.654-.81l-1.166.437z" fill="#263238" opacity=".2"/>
        <path d="M28.007 10.217v.046c.163.357.289.79 0 1.049 0 0 0 .023 0 0 .387-.205.213-.783 0-1.095z" fill="#263238"/>
        <path d="M27.528 9.978c-.6.201-.152 1.383.403 1.197.555-.186.099-1.364-.403-1.197zM26.855 9.328c.133-.105.26-.216.38-.334a.813.813 0 0 0 .339-.418.266.266 0 0 0-.152-.285.661.661 0 0 0-.65.17.965.965 0 0 0-.38.594.285.285 0 0 0 .463.273zM30.777 8.602a4.765 4.765 0 0 1-.517.054.832.832 0 0 1-.536-.042.27.27 0 0 1-.102-.312.669.669 0 0 1 .574-.35.992.992 0 0 1 .687.137.289.289 0 0 1-.106.513zM29.101 13.702a.6.6 0 0 0 .38.099c.134-.055.256-.137.357-.24h.023a.524.524 0 0 1-.38.38.418.418 0 0 1-.406-.216s.011-.03.026-.023z" fill="#263238"/>
        <path d="M29.075 12.46c.298.222.675.31 1.04.243.159-.029.312-.079.457-.149l.08-.041.076-.046a.087.087 0 0 0 .041-.106.091.091 0 0 0 0-.038v-.035c-.098-.285-.288-.703-.288-.703.121 0 .737.054.672-.09a19.84 19.84 0 0 0-1.9-3.592.035.035 0 0 0-.06.034c.467 1.167 1.14 2.242 1.622 3.42a2.424 2.424 0 0 0-.657.042c-.035.027.38.802.414.935-.45.222-.971.252-1.444.084-.069-.012-.088.022-.053.041z" fill="#263238"/>
        <path d="M30.39 12.558c-.094.248-.25.468-.453.639a.692.692 0 0 1-.38.148c-.315 0-.403-.255-.422-.502a1.756 1.756 0 0 1 .027-.38c.39.16.818.193 1.227.095z" fill="#263238"/>
        <path d="M29.937 13.197a.692.692 0 0 1-.38.148c-.315 0-.403-.255-.422-.502a.726.726 0 0 1 .802.354z" fill="#FF98B9"/>
        <path d="M31.066 8.8c-.107.024-.21.06-.308.11-.1.053-.192.12-.274.198a.954.954 0 0 0-.197.289.737.737 0 0 0-.057.36v.225l.178-.14c.124-.1.257-.185.4-.255a.984.984 0 0 1 .474-.11.714.714 0 0 0-.532-.054 1.36 1.36 0 0 0-.49.236l.19.083c0-.182.06-.36.171-.505.13-.163.28-.31.445-.437z" fill="#263238"/>
        <path d="M31.005 9.906a1.927 1.927 0 0 1-.505.102c-.042 0-.21 0-.217-.038a.98.98 0 0 1-.057-.247.593.593 0 0 0 0 .27c.07.07.168.104.266.095.184-.016.36-.078.513-.182zM23.603 12.28c1.033-.334.266-2.88.266-2.88s1.52-.706 1.744-3.116c0 0 2.401.76 4.05 0 2.588-1.2 1.6-4.712.38-5.164-1.706-.646-3.883 1.52-3.883 1.52s-4.18-.072-4.64 2.858a2.056 2.056 0 0 0-1.334 2.47c.392 1.923 2.641 4.564 3.417 4.313z" fill="#263238"/>
        <path d="M23.568 9.8a3.678 3.678 0 0 0 1.74-1.638 2.751 2.751 0 0 0 0-2.535c-.022-.042.046-.076.07-.034.474.815.56 1.8.235 2.686a2.569 2.569 0 0 1-2.018 1.596.042.042 0 0 1-.027-.076zM19.772 6.862c.357-.817 1.14-1.14 1.961-1.315.046 0 .06.065 0 .072a2.31 2.31 0 0 0-1.725 1.612c-.24.74.06 1.52.406 2.18a5.863 5.863 0 0 0 3.128 2.779 5.833 5.833 0 0 1-3.485-3.04c-.327-.654-.615-1.536-.285-2.288zM26.1 2.777a2.755 2.755 0 0 1 1.196-1.52A3.283 3.283 0 0 1 29.606.9a1.85 1.85 0 0 1 1.338 1.284c.191.73.124 1.503-.19 2.189 0 .019-.038 0-.03 0 .228-.63.257-1.317.083-1.965A1.714 1.714 0 0 0 29.455 1.2c-1.243-.205-2.85.3-3.287 1.626a.042.042 0 1 1-.069-.049z" fill="#263238"/>
        <path d="M24.26 12.239s-1.702-1.478-2.405-.832c-.703.646.889 3.017 1.93 3.135a1.003 1.003 0 0 0 1.174-.848l-.699-1.455z" fill="#D3766A"/>
        <path d="M22.31 12.076c.738.106 1.247.638 1.654 1.22a.555.555 0 0 0-.844.064.02.02 0 0 0 .027.03.623.623 0 0 1 .71.046c.163.137.312.29.445.456.05.05.148 0 .106-.072-.197-.84-1.159-1.885-2.097-1.744zM45.988 10.594l-15.367 1.235-.456-3.477 15.162-2.793z" fill="#263238"/>
        <path fill="#37474F" d="m54.728 10.875-15.424.798-.714-5.423L53.69 3.02z"/>
        <path fill="#455A64" d="m62.237 11.741-11.822-.254-1.048-7.939L60.72.235z"/>
        <path d="M62.26 5.885c.38 2.9.338 5.298-.095 5.358-.433.061-1.098-2.25-1.482-5.152-.384-2.904-.338-5.32.095-5.358.433-.038 1.102 2.25 1.482 5.152z" fill="#FFC727"/>
        <path d="M22.428 25.193c5.15 4.754 18.453 12.244 21.2 10.906 5.062-2.466 6.08-17.499 6.552-20.436.205-1.254-10.488-1.391-10.731-.057-.213 1.163-.183 9.029-1.14 9.374-.38.145-6.38-1.846-13.099-2.926-5.13-.828-4.302 1.733-2.782 3.14z" fill="#D3766A"/>
        <path d="M39.289 18.045s.182-1.235-.27-4.248c-.353-2.356.456-8.136 6.175-11.613 2.189-1.334 4.081-.38 2.052 1.41-1.432 1.262-2.53 2.01-2.88 2.554 0 0 2.91-.149 3.96 1.178a30.997 30.997 0 0 1 2.485 3.667 6.627 6.627 0 0 1-.643.524 3.553 3.553 0 0 1 .065 3.8l-.334 2.584-10.61.144z" fill="#D3766A"/>
        <path d="M39.354 11.68c.646-1.067 2.052-3.306 3.841-4.738 1.988-1.592 6.244-4.12 7.403-2.66.847 1.083-.692 2.192-.692 2.192s1.98-.672 2.535.475c.501 1.045-.741 1.828-.741 1.828s1.273-.201 1.565.9c.35 1.323-2.37 1.52-3.173 3.181-.182.388-10.738-1.178-10.738-1.178z" fill="#D3766A"/>
        <path d="M44.525 9.32a10.138 10.138 0 0 1 5.32-2.846c.054 0 .088.027.042.042A24.996 24.996 0 0 0 44.53 9.34s-.011-.008-.004-.02zM46.19 11.281c.76-.714 3.173-2.26 5.49-2.527.054 0 .084.03.039.046a26.657 26.657 0 0 0-5.514 2.5s-.023-.011-.015-.019zM50.054 16.685c0-.467.035-.931.073-1.395v-.03l.019-.03a3.8 3.8 0 0 0 .44-1.44 4.275 4.275 0 0 0-.14-1.52v-.065l.042-.034a4.24 4.24 0 0 1 .984-.639 5.96 5.96 0 0 0-.441.38c-.14.137-.281.262-.41.4l.022-.1a3.466 3.466 0 0 1 .244 1.604 3.397 3.397 0 0 1-.175.802 2.747 2.747 0 0 1-.38.737v-.05c-.076.468-.164.928-.278 1.38z" fill="#263238"/>
        <path d="m39.289 18.045 10.61-.16s1.945 1.931 1.47 3.949c-.475 2.018-4.56 13.92-8.098 14.531-3.537.612-15.853-6.57-20.01-10.127-4.158-3.557-3.33-5.046 2.166-4.48 5.494.566 12.749 2.926 12.866 2.873.118-.053-.38-2.816-.315-3.914.065-1.098 1.311-2.672 1.311-2.672z" fill="#FFC727"/>
        <path d="M48.618 28.017c.126.124.266.234.418.326.027-.057.05-.117.076-.174a2.333 2.333 0 0 0-.494-.152zm-4.043-7.749a3.219 3.219 0 0 0-.802-.296c.207.197.441.363.695.494.253.134.523.234.802.296a3.013 3.013 0 0 0-.695-.494zm-7.855 6.18a2.877 2.877 0 0 0-.798-.297c.421.387.936.658 1.494.786a2.998 2.998 0 0 0-.696-.49zm7.004.991a3.139 3.139 0 0 0-.798-.296c.207.196.44.363.695.494.251.134.52.234.798.296a3.013 3.013 0 0 0-.695-.494zm-7.566 5.096c-.138.25-.238.519-.297.798.388-.421.659-.936.787-1.494-.194.209-.36.443-.49.696zm9.789-1.695c-.138.25-.238.519-.297.798.387-.421.658-.936.787-1.493-.195.208-.36.442-.49.695zm-5.248-7.136c-.138.25-.238.518-.297.798.197-.207.362-.441.49-.696.14-.25.239-.521.297-.802-.194.21-.36.445-.49.7zm1.584 9.85a3.093 3.093 0 0 0-.76.353c.286-.007.569-.056.84-.145a3.04 3.04 0 0 0 .76-.353 2.949 2.949 0 0 0-.84.144zm-9.226-3.61a3.04 3.04 0 0 0-.76.353c.285-.008.568-.056.84-.145.268-.083.523-.202.76-.353a2.926 2.926 0 0 0-.84.144zm14.003-5.477a3.154 3.154 0 0 0-.353-.76c.007.287.055.571.144.844.082.268.201.524.353.76a2.972 2.972 0 0 0-.144-.844zm-15.474 1.14a2.918 2.918 0 0 0-.357-.76c.01.286.06.569.148.84.08.27.198.526.354.76a2.926 2.926 0 0 0-.164-.832l.02-.008zm7.95 3.9a3.154 3.154 0 0 0-.353-.76c.007.286.055.57.144.843.082.268.201.524.353.76a2.972 2.972 0 0 0-.163-.836l.019-.008zm.198-9.972a2.854 2.854 0 0 0-.802-.296 3.34 3.34 0 0 0 1.497.786 2.888 2.888 0 0 0-.714-.482l.019-.008zm9.986 1.193c-.135.252-.234.52-.296.798.197-.206.364-.44.494-.695.134-.252.234-.52.296-.798a3.013 3.013 0 0 0-.494.695zm-21.101 7.62a2.877 2.877 0 0 0-.798-.297c.42.387.935.658 1.493.786a3.116 3.116 0 0 0-.703-.49h.008zm-2.398-4.8c-.138.25-.238.519-.297.798.388-.421.659-.936.787-1.494-.2.206-.367.44-.498.696h.008zm-3.12 2.189c0 .127.015.255.042.38l.125.11.137.114a2.66 2.66 0 0 0-.312-.604h.008z" fill="#FFF"/>
        <path d="M29.07 21.78c.495.19.981.411 1.46.64.217.102.433.208.654.307-1.14-.266-2.28-.517-3.42-.76-.035 0-.046.05 0 .06 1.763.548 3.549 1.042 5.32 1.498 1.747.509 3.523.911 5.32 1.205a.043.043 0 0 0 .019-.084 44.68 44.68 0 0 0-5.343-1.486c-.437-.11-.874-.209-1.315-.311-.148-.095-.296-.19-.452-.274a7.6 7.6 0 0 0-.71-.338c-.495-.205-1-.38-1.52-.532-.027.015-.046.064-.012.076zM24.986 28.716c.338.133.688.243 1.033.35.156.049.316.094.472.148a72.068 72.068 0 0 1-2.102-1.224v-.038c1.14.543 2.28 1.14 3.42 1.729.923.44 1.812.948 2.66 1.52a.03.03 0 0 1-.026.053 20.797 20.797 0 0 1-2.805-1.372c-.273-.148-.543-.304-.817-.456l-.353-.068a4.997 4.997 0 0 1-.513-.16c-.346-.125-.68-.273-1.015-.433.008-.023.023-.06.046-.05z" fill="#263238"/>
        <path d="M39.232 18.011a6.384 6.384 0 0 0-1.25 2.261c-.247.855-.103 1.748 0 2.615.116.972.277 1.936.482 2.891a.7.7 0 0 0-.022.236v.304c.015.395.064.787.144 1.174 0 .023.034 0 .034 0-.038-.281-.06-.566-.08-.851 0-.15-.007-.298-.022-.445v-.186c.186.84.406 1.672.668 2.493 0 .03.065.023.054 0-.38-1.775-.719-3.56-.939-5.366-.106-.896-.293-1.862 0-2.736a21.79 21.79 0 0 1 .996-2.337c.022-.06-.038-.083-.065-.053z" fill="#263238"/>
    </g>
</svg>
